<svg width="100%" height="100%" viewBox="0 0 418 102" fill="none" xmlns="http://www.w3.org/2000/svg">
<path d="M48.356 7.21723C49.4472 5.45692 50.4947 3.75684 51.6069 1.95178C68.3378 30.9457 84.9994 59.8194 101.748 88.8436C92.702 89.0154 83.7912 89.1841 74.8667 89.3536C71.4143 83.385 67.9685 77.4382 64.5329 71.4855C55.6956 56.1739 46.8663 40.8578 38.0155 25.554C37.6687 24.9543 37.6821 24.5232 38.0455 23.9377C41.4856 18.3952 44.8944 12.8336 48.356 7.21723Z" fill="#272121"/>
<path d="M46.225 89.2727C31.2673 89.2727 16.4124 89.2727 1.4303 89.2727C1.54117 88.9855 1.60267 88.7407 1.72197 88.5289C5.76248 81.3355 9.8149 74.1489 13.8404 66.9474C14.1339 66.4224 14.4688 66.2805 15.041 66.2811C29.0062 66.2959 42.9715 66.2941 56.9367 66.287C57.4693 66.2868 57.8497 66.324 58.169 66.8973C62.2324 74.1941 66.335 81.4697 70.426 88.7509C70.4918 88.8686 70.538 88.9965 70.6623 89.2727C62.4974 89.2727 54.4125 89.2727 46.225 89.2727Z" fill="#272121"/>
<path d="M35.0413 29.2832C35.2972 28.8494 35.5098 28.477 35.7953 27.9769C37.5479 30.9986 39.2147 33.8705 40.8798 36.7434C43.3153 40.9457 45.7401 45.1541 48.1968 49.3442C48.4919 49.8475 48.5195 50.2207 48.2216 50.7306C45.9127 54.6823 43.6417 58.6558 41.323 62.6016C41.1425 62.9088 40.6911 63.2473 40.361 63.2521C32.1861 63.3704 24.0107 63.4459 15.8352 63.5264C15.7351 63.5274 15.6348 63.4956 15.3668 63.4517C21.9329 52.0438 28.4655 40.6942 35.0413 29.2832Z" fill="#FF1717"/>
<path d="M123.165 14.826V89.4461H110.673V14.826H123.165ZM180.315 37.9251V89.4461H172.678C171.026 89.4461 169.981 88.6929 169.543 87.1864L168.683 83.0688C166.559 85.2115 164.216 86.9518 161.654 88.2912C159.091 89.5968 156.074 90.2496 152.602 90.2496C149.77 90.2496 147.258 89.7811 145.067 88.8435C142.909 87.873 141.088 86.5171 139.605 84.7761C138.121 83.035 136.992 80.9762 136.217 78.5996C135.475 76.1893 135.104 73.5445 135.104 70.6656V37.9251H147.595V70.6656C147.595 73.8124 148.32 76.2562 149.77 77.997C151.253 79.7043 153.461 80.558 156.394 80.558C158.552 80.558 160.574 80.0896 162.463 79.152C164.351 78.1811 166.137 76.8588 167.823 75.1849V37.9251H180.315ZM192.7 89.4461V37.9251H200.336C201.954 37.9251 203.016 38.6784 203.522 40.1848L204.331 44.0012C205.241 42.9969 206.185 42.0763 207.163 41.2393C208.174 40.4024 209.236 39.6827 210.349 39.0801C211.495 38.4775 212.708 38.0088 213.99 37.674C215.305 37.3058 216.737 37.1217 218.288 37.1217C221.558 37.1217 224.238 38.0088 226.329 39.7831C228.453 41.5239 230.038 43.8505 231.083 46.763C231.892 45.0557 232.903 43.5995 234.117 42.3943C235.331 41.1556 236.662 40.1513 238.112 39.3814C239.561 38.6114 241.096 38.0423 242.714 37.674C244.366 37.3058 246.018 37.1217 247.67 37.1217C250.535 37.1217 253.081 37.5569 255.306 38.4273C257.532 39.2977 259.403 40.5698 260.92 42.2437C262.437 43.9175 263.583 45.9596 264.359 48.3699C265.168 50.7803 265.572 53.5421 265.572 56.6555V89.4461H253.081V56.6555C253.081 53.3748 252.356 50.9142 250.907 49.2738C249.457 47.6 247.333 46.763 244.535 46.763C243.253 46.763 242.057 46.9806 240.944 47.4158C239.865 47.8511 238.904 48.4871 238.062 49.324C237.253 50.1275 236.612 51.1485 236.14 52.3872C235.667 53.6258 235.432 55.0486 235.432 56.6555V89.4461H222.89V56.6555C222.89 53.2073 222.182 50.6965 220.766 49.1232C219.384 47.5498 217.344 46.763 214.647 46.763C212.827 46.763 211.124 47.215 209.54 48.1189C207.989 48.9892 206.539 50.1944 205.191 51.7344V89.4461H192.7ZM289.127 44.2523C290.172 43.2145 291.268 42.2604 292.414 41.39C293.594 40.4861 294.824 39.7329 296.106 39.1303C297.421 38.4942 298.819 38.0088 300.303 37.674C301.787 37.3058 303.405 37.1217 305.158 37.1217C307.99 37.1217 310.501 37.6071 312.693 38.5779C314.884 39.5153 316.705 40.8543 318.155 42.5952C319.638 44.3025 320.751 46.3613 321.493 48.7716C322.268 51.1485 322.656 53.7765 322.656 56.6555V89.4461H310.165V56.6555C310.165 53.5086 309.439 51.0816 307.99 49.3742C306.54 47.6334 304.332 46.763 301.365 46.763C299.207 46.763 297.185 47.2485 295.297 48.2193C293.408 49.1901 291.622 50.5125 289.936 52.1863V89.4461H277.445V37.9251H285.082C286.7 37.9251 287.762 38.6784 288.268 40.1848L289.127 44.2523ZM349.075 89.4461H335.421V16.8347H349.075V89.4461ZM416.524 27.9323H394.475V89.4461H380.872V27.9323H358.823V16.8347H416.524V27.9323Z" fill="#272121"/>
</svg>
