<svg id="visual" viewBox="0 0 1920 1080" width="1920" height="1080" xmlns="http://www.w3.org/2000/svg" xmlns:xlink="http://www.w3.org/1999/xlink" version="1.1"><rect x="0" y="0" width="1920" height="1080" fill="#F5EDDC"></rect><path d="M0 607L274 632L549 632L823 588L1097 654L1371 612L1646 630L1920 652L1920 1081L1646 1081L1371 1081L1097 1081L823 1081L549 1081L274 1081L0 1081Z" fill="#fa9494"></path><path d="M0 777L274 714L549 732L823 670L1097 668L1371 778L1646 700L1920 723L1920 1081L1646 1081L1371 1081L1097 1081L823 1081L549 1081L274 1081L0 1081Z" fill="#f97c7d"></path><path d="M0 811L274 757L549 783L823 774L1097 802L1371 829L1646 794L1920 754L1920 1081L1646 1081L1371 1081L1097 1081L823 1081L549 1081L274 1081L0 1081Z" fill="#f66365"></path><path d="M0 840L274 926L549 913L823 837L1097 920L1371 879L1646 910L1920 843L1920 1081L1646 1081L1371 1081L1097 1081L823 1081L549 1081L274 1081L0 1081Z" fill="#f1464e"></path><path d="M0 943L274 956L549 930L823 943L1097 1010L1371 944L1646 935L1920 1013L1920 1081L1646 1081L1371 1081L1097 1081L823 1081L549 1081L274 1081L0 1081Z" fill="#eb1d36"></path></svg>